{
    "asset" : {
        "generator" : "Khronos glTF Blender I/O v3.3.27",
        "version" : "2.0"
    },
    "scene" : 0,
    "scenes" : [
        {
            "name" : "Scene",
            "nodes" : [
                0,
                1,
                2,
                3
            ]
        }
    ],
    "nodes" : [
        {
            "mesh" : 0,
            "name" : "Cube.001",
            "rotation" : [
                0.22565767168998718,
                -0.5288758277893066,
                -0.7525142431259155,
                0.32107841968536377
            ],
            "scale" : [
                0.2276167869567871,
                0.8575403094291687,
                0.6962465643882751
            ],
            "translation" : [
                6.621287822723389,
                3.07831072807312,
                6.857573509216309
            ]
        },
        {
            "mesh" : 1,
            "name" : "Cube.002",
            "rotation" : [
                0.2413882166147232,
                0.6764329075813293,
                0.6527690291404724,
                0.24096237123012543
            ],
            "scale" : [
                0.22761677205562592,
                0.8575402498245239,
                0.6962465047836304
            ],
            "translation" : [
                2.113351345062256,
                -0.788855254650116,
                9.930391311645508
            ]
        },
        {
            "mesh" : 2,
            "name" : "Text",
            "rotation" : [
                0.7071068286895752,
                0,
                0,
                0.7071068286895752
            ],
            "scale" : [
                1.4718774557113647,
                1.4718774557113647,
                1.4718774557113647
            ],
            "translation" : [
                11.245688438415527,
                5.781276226043701,
                6.667937755584717
            ]
        },
        {
            "mesh" : 3,
            "name" : "Text.001",
            "rotation" : [
                0.7071068286895752,
                0,
                0,
                0.7071068286895752
            ],
            "scale" : [
                1.327508807182312,
                1.327508807182312,
                1.327508807182312
            ],
            "translation" : [
                4.305037021636963,
                -4.132253646850586,
                9.902107238769531
            ]
        }
    ],
    "materials" : [
        {
            "doubleSided" : true,
            "name" : "Material.004",
            "pbrMetallicRoughness" : {
                "baseColorFactor" : [
                    1,
                    0,
                    0.0023834477178752422,
                    1
                ],
                "metallicFactor" : 0,
                "roughnessFactor" : 0.4000000059604645
            }
        },
        {
            "doubleSided" : true,
            "name" : "Material.009",
            "pbrMetallicRoughness" : {
                "baseColorFactor" : [
                    0,
                    0,
                    0,
                    1
                ],
                "metallicFactor" : 0,
                "roughnessFactor" : 0.5
            }
        },
        {
            "doubleSided" : true,
            "name" : "Material.012",
            "pbrMetallicRoughness" : {
                "baseColorFactor" : [
                    0,
                    0,
                    0,
                    1
                ],
                "metallicFactor" : 0,
                "roughnessFactor" : 0.5
            }
        }
    ],
    "meshes" : [
        {
            "name" : "Cube.011",
            "primitives" : [
                {
                    "attributes" : {
                        "POSITION" : 0,
                        "NORMAL" : 1,
                        "TEXCOORD_0" : 2
                    },
                    "indices" : 3,
                    "material" : 0
                }
            ]
        },
        {
            "name" : "Cube.013",
            "primitives" : [
                {
                    "attributes" : {
                        "POSITION" : 4,
                        "NORMAL" : 5,
                        "TEXCOORD_0" : 6
                    },
                    "indices" : 3,
                    "material" : 0
                }
            ]
        },
        {
            "name" : "Text",
            "primitives" : [
                {
                    "attributes" : {
                        "POSITION" : 7,
                        "NORMAL" : 8,
                        "TEXCOORD_0" : 9
                    },
                    "indices" : 10,
                    "material" : 1
                }
            ]
        },
        {
            "name" : "Text.001",
            "primitives" : [
                {
                    "attributes" : {
                        "POSITION" : 11,
                        "NORMAL" : 12,
                        "TEXCOORD_0" : 13
                    },
                    "indices" : 14,
                    "material" : 2
                }
            ]
        }
    ],
    "accessors" : [
        {
            "bufferView" : 0,
            "componentType" : 5126,
            "count" : 369,
            "max" : [
                1,
                0.0724186897277832,
                1
            ],
            "min" : [
                -11.980573654174805,
                -0.0724186897277832,
                -1
            ],
            "type" : "VEC3"
        },
        {
            "bufferView" : 1,
            "componentType" : 5126,
            "count" : 369,
            "type" : "VEC3"
        },
        {
            "bufferView" : 2,
            "componentType" : 5126,
            "count" : 369,
            "type" : "VEC2"
        },
        {
            "bufferView" : 3,
            "componentType" : 5123,
            "count" : 390,
            "type" : "SCALAR"
        },
        {
            "bufferView" : 4,
            "componentType" : 5126,
            "count" : 369,
            "max" : [
                1,
                0.0724186897277832,
                1
            ],
            "min" : [
                -11.980573654174805,
                -0.0724186897277832,
                -1
            ],
            "type" : "VEC3"
        },
        {
            "bufferView" : 5,
            "componentType" : 5126,
            "count" : 369,
            "type" : "VEC3"
        },
        {
            "bufferView" : 6,
            "componentType" : 5126,
            "count" : 369,
            "type" : "VEC2"
        },
        {
            "bufferView" : 7,
            "componentType" : 5126,
            "count" : 11618,
            "max" : [
                1.917169451713562,
                0.07999999821186066,
                0.4540000259876251
            ],
            "min" : [
                -1.9115281105041504,
                -0.07999999821186066,
                -0.45404693484306335
            ],
            "type" : "VEC3"
        },
        {
            "bufferView" : 8,
            "componentType" : 5126,
            "count" : 11618,
            "type" : "VEC3"
        },
        {
            "bufferView" : 9,
            "componentType" : 5126,
            "count" : 11618,
            "type" : "VEC2"
        },
        {
            "bufferView" : 10,
            "componentType" : 5123,
            "count" : 49968,
            "type" : "SCALAR"
        },
        {
            "bufferView" : 11,
            "componentType" : 5126,
            "count" : 11834,
            "max" : [
                4.641668796539307,
                0.07999999821186066,
                0.25
            ],
            "min" : [
                0.04100000485777855,
                -0.07999999821186066,
                -0.7020000219345093
            ],
            "type" : "VEC3"
        },
        {
            "bufferView" : 12,
            "componentType" : 5126,
            "count" : 11834,
            "type" : "VEC3"
        },
        {
            "bufferView" : 13,
            "componentType" : 5126,
            "count" : 11834,
            "type" : "VEC2"
        },
        {
            "bufferView" : 14,
            "componentType" : 5123,
            "count" : 50688,
            "type" : "SCALAR"
        }
    ],
    "bufferViews" : [
        {
            "buffer" : 0,
            "byteLength" : 4428,
            "byteOffset" : 0,
            "target" : 34962
        },
        {
            "buffer" : 0,
            "byteLength" : 4428,
            "byteOffset" : 4428,
            "target" : 34962
        },
        {
            "buffer" : 0,
            "byteLength" : 2952,
            "byteOffset" : 8856,
            "target" : 34962
        },
        {
            "buffer" : 0,
            "byteLength" : 780,
            "byteOffset" : 11808,
            "target" : 34963
        },
        {
            "buffer" : 0,
            "byteLength" : 4428,
            "byteOffset" : 12588,
            "target" : 34962
        },
        {
            "buffer" : 0,
            "byteLength" : 4428,
            "byteOffset" : 17016,
            "target" : 34962
        },
        {
            "buffer" : 0,
            "byteLength" : 2952,
            "byteOffset" : 21444,
            "target" : 34962
        },
        {
            "buffer" : 0,
            "byteLength" : 139416,
            "byteOffset" : 24396,
            "target" : 34962
        },
        {
            "buffer" : 0,
            "byteLength" : 139416,
            "byteOffset" : 163812,
            "target" : 34962
        },
        {
            "buffer" : 0,
            "byteLength" : 92944,
            "byteOffset" : 303228,
            "target" : 34962
        },
        {
            "buffer" : 0,
            "byteLength" : 99936,
            "byteOffset" : 396172,
            "target" : 34963
        },
        {
            "buffer" : 0,
            "byteLength" : 142008,
            "byteOffset" : 496108,
            "target" : 34962
        },
        {
            "buffer" : 0,
            "byteLength" : 142008,
            "byteOffset" : 638116,
            "target" : 34962
        },
        {
            "buffer" : 0,
            "byteLength" : 94672,
            "byteOffset" : 780124,
            "target" : 34962
        },
        {
            "buffer" : 0,
            "byteLength" : 101376,
            "byteOffset" : 874796,
            "target" : 34963
        }
    ],
    "buffers" : [
        {
            "byteLength" : 976172,
            "uri" : "data:application/octet-stream;base64,"
        }
    ]
}
