{
    "asset" : {
        "generator" : "Khronos glTF Blender I/O v3.3.27",
        "version" : "2.0"
    },
    "scene" : 0,
    "scenes" : [
        {
            "name" : "Scene",
            "nodes" : [
                0
            ]
        }
    ],
    "nodes" : [
        {
            "mesh" : 0,
            "name" : "Torus",
            "rotation" : [
                0,
                -0.7071068286895752,
                -0.7071068286895752,
                0
            ],
            "scale" : [
                -0.13730043172836304,
                -0.01580958440899849,
                -0.13730043172836304
            ],
            "translation" : [
                1.0223307609558105,
                -0.6002379655838013,
                8.010244369506836
            ]
        }
    ],
    "materials" : [
        {
            "doubleSided" : true,
            "name" : "Material.014",
            "pbrMetallicRoughness" : {
                "baseColorFactor" : [
                    0.011680168099701405,
                    0,
                    0.8000000715255737,
                    1
                ],
                "metallicFactor" : 0,
                "roughnessFactor" : 0.5
            }
        }
    ],
    "meshes" : [
        {
            "name" : "Torus",
            "primitives" : [
                {
                    "attributes" : {
                        "POSITION" : 0,
                        "NORMAL" : 1,
                        "TEXCOORD_0" : 2
                    },
                    "indices" : 3,
                    "material" : 0
                }
            ]
        }
    ],
    "accessors" : [
        {
            "bufferView" : 0,
            "componentType" : 5126,
            "count" : 2304,
            "max" : [
                1.25,
                0.2786407768726349,
                1.25
            ],
            "min" : [
                -1.25,
                -0.2786408066749573,
                -1.25
            ],
            "type" : "VEC3"
        },
        {
            "bufferView" : 1,
            "componentType" : 5126,
            "count" : 2304,
            "type" : "VEC3"
        },
        {
            "bufferView" : 2,
            "componentType" : 5126,
            "count" : 2304,
            "type" : "VEC2"
        },
        {
            "bufferView" : 3,
            "componentType" : 5123,
            "count" : 3456,
            "type" : "SCALAR"
        }
    ],
    "bufferViews" : [
        {
            "buffer" : 0,
            "byteLength" : 27648,
            "byteOffset" : 0,
            "target" : 34962
        },
        {
            "buffer" : 0,
            "byteLength" : 27648,
            "byteOffset" : 27648,
            "target" : 34962
        },
        {
            "buffer" : 0,
            "byteLength" : 18432,
            "byteOffset" : 55296,
            "target" : 34962
        },
        {
            "buffer" : 0,
            "byteLength" : 6912,
            "byteOffset" : 73728,
            "target" : 34963
        }
    ],
    "buffers" : [
        {
            "byteLength" : 80640,
            "uri" : "data:application/octet-stream;base64,"
        }
    ]
}
